<svg width="128" height="32" viewBox="0 0 128 32" xmlns="http://www.w3.org/2000/svg"><path fill-rule="evenodd" clip-rule="evenodd" d="M99.7719 21.2334C99.9403 15.7267 104.422 11.3148 109.927 11.3148C110.787 11.3148 111.634 11.2609 112.466 11.1565C115.214 10.8112 117.792 9.91265 120.087 8.5749C122.783 7.00295 125.088 4.82455 126.817 2.22476C127.066 1.85 127.304 1.46648 127.529 1.07476C127.692 0.789203 127.85 0.499289 128 0.205231C127.191 0.754305 126.216 1.07476 125.167 1.07476H120.087C116.205 1.07476 112.577 2.17189 109.492 4.07528C106.983 5.62372 104.833 7.70574 103.197 10.1648C101.086 13.3384 99.832 17.1399 99.7694 21.2328L99.7719 21.2334ZM99.767 24.1148C99.767 23.757 99.7852 23.4036 99.8207 23.0554C99.8282 22.9816 99.8365 22.9081 99.8456 22.8348C99.8995 22.399 99.9806 21.9717 100.087 21.5548C100.107 21.4773 100.128 21.4001 100.149 21.3233C101.355 17.0246 105.276 13.8748 109.927 13.8748H111.197C111.658 13.8748 112.062 13.6268 112.285 13.2559C112.245 13.4645 112.199 13.6709 112.147 13.8748C112.127 13.9523 112.106 14.0294 112.085 14.1062C111.666 15.6003 110.919 16.9556 109.927 18.0881C108.065 20.2139 105.341 21.5548 102.307 21.5548C101.198 21.5548 100.255 22.2709 99.9088 23.2693C99.888 23.3291 99.8694 23.39 99.853 23.4517C99.7969 23.6632 99.767 23.8855 99.767 24.1148Z"/><path fill-rule="evenodd" clip-rule="evenodd" d="M95.3894 26.1983C95.3672 26.196 95.3447 26.1948 95.3219 26.1948C95.026 26.1948 94.7774 26.3987 94.7069 26.6748C94.6938 26.7259 94.6869 26.7795 94.6869 26.8348V30.1948C94.6869 30.6683 94.942 31.0817 95.3212 31.3031C95.5839 31.3622 95.8486 31.4162 96.1151 31.4649C97.2997 31.6816 98.5202 31.7948 99.7669 31.7948C101.014 31.7948 102.234 31.6816 103.419 31.4649C103.685 31.4162 103.95 31.3622 104.213 31.3031C104.592 31.0817 104.847 30.6683 104.847 30.1948V26.8348C104.847 26.7795 104.84 26.7259 104.827 26.6748C104.756 26.3987 104.508 26.1948 104.212 26.1948C104.189 26.1948 104.167 26.196 104.144 26.1983C104.099 26.2032 104.054 26.213 104.012 26.2272C102.643 26.5205 101.223 26.6748 99.7669 26.6748C98.3112 26.6748 96.8912 26.5205 95.5222 26.2273C95.4797 26.213 95.4353 26.2032 95.3894 26.1983ZM97.8619 25.9459C97.6447 25.9256 97.4286 25.9018 97.2135 25.8746L97.2185 25.8747C97.2213 25.8747 97.2241 25.8748 97.2269 25.8748C97.5776 25.8748 97.8619 25.5882 97.8619 25.2348V24.7548C97.8619 24.4013 98.1462 24.1148 98.4969 24.1148H101.037C101.388 24.1148 101.672 24.4013 101.672 24.7548V25.2348C101.672 25.5882 101.956 25.8748 102.307 25.8748L102.311 25.8748L102.315 25.8747L102.32 25.8746C102.105 25.9018 101.889 25.9256 101.672 25.9459C101.045 26.0047 100.409 26.0348 99.7669 26.0348C99.1245 26.0348 98.4891 26.0047 97.8619 25.9459Z"/><path d="M0 24.9584V5H12.5159V8.0816H3.60045V13.1792H11.5157V16.2608H3.60045V24.9584H0Z"/><path d="M21.225 13.0352C20.9392 12.9392 20.5392 12.8432 20.0248 12.7472C19.5295 12.632 18.9485 12.5744 18.2817 12.5744C17.9007 12.5744 17.4912 12.6128 17.053 12.6896C16.6339 12.7664 16.3386 12.8336 16.1672 12.8912V24.9584H12.7096V10.616C13.3764 10.3664 14.205 10.136 15.1956 9.9248C16.2053 9.6944 17.3197 9.5792 18.5389 9.5792C18.7675 9.5792 19.0342 9.5984 19.339 9.6368C19.6438 9.656 19.9486 9.6944 20.2534 9.752C20.5582 9.7904 20.8535 9.848 21.1392 9.9248C21.425 9.9824 21.6536 10.04 21.8251 10.0976L21.225 13.0352Z"/><path d="M27.4921 22.5104C28.5588 22.5104 29.3685 22.4528 29.9209 22.3376V18.4784C29.7304 18.4208 29.4542 18.3632 29.0923 18.3056C28.7303 18.248 28.3302 18.2192 27.8921 18.2192C27.5111 18.2192 27.1206 18.248 26.7205 18.3056C26.3395 18.3632 25.9871 18.4688 25.6633 18.6224C25.3585 18.776 25.1108 18.9968 24.9203 19.2848C24.7298 19.5536 24.6346 19.8992 24.6346 20.3216C24.6346 21.1472 24.8917 21.7232 25.4061 22.0496C25.9204 22.3568 26.6157 22.5104 27.4921 22.5104ZM27.2063 9.5216C28.3493 9.5216 29.3113 9.6656 30.0924 9.9536C30.8734 10.2416 31.4926 10.6448 31.9498 11.1632C32.426 11.6816 32.7594 12.3152 32.9499 13.064C33.1594 13.7936 33.2642 14.6 33.2642 15.4832V24.6128C32.7308 24.728 31.9212 24.8624 30.8353 25.016C29.7685 25.1888 28.5589 25.2752 27.2063 25.2752C26.311 25.2752 25.4918 25.1888 24.7488 25.016C24.0059 24.8432 23.3677 24.5648 22.8343 24.1808C22.32 23.7968 21.9104 23.2976 21.6056 22.6832C21.3199 22.0688 21.177 21.3104 21.177 20.408C21.177 19.544 21.3389 18.8144 21.6628 18.2192C22.0057 17.624 22.4629 17.144 23.0344 16.7792C23.6059 16.3952 24.2631 16.1264 25.006 15.9728C25.768 15.8 26.5586 15.7136 27.3778 15.7136C27.7587 15.7136 28.1588 15.7424 28.5779 15.8C28.997 15.8384 29.4447 15.9152 29.9209 16.0304V15.4544C29.9209 15.0512 29.8733 14.6672 29.7781 14.3024C29.6828 13.9376 29.5114 13.6208 29.2637 13.352C29.0351 13.064 28.7208 12.8432 28.3207 12.6896C27.9397 12.536 27.454 12.4592 26.8634 12.4592C26.0633 12.4592 25.3299 12.5168 24.6631 12.632C23.9964 12.7472 23.4535 12.8816 23.0344 13.0352L22.6057 10.2128C23.0439 10.0592 23.6821 9.9056 24.5203 9.752C25.3585 9.5984 26.2538 9.5216 27.2063 9.5216Z"/><path d="M38.9558 22.4528C39.8702 22.4528 40.5369 22.3472 40.956 22.136C41.3751 21.9056 41.5847 21.5216 41.5847 20.984C41.5847 20.4848 41.3561 20.072 40.8989 19.7456C40.4607 19.4192 39.7273 19.064 38.6986 18.68C38.0699 18.4496 37.4889 18.2096 36.9555 17.96C36.4412 17.6912 35.9935 17.384 35.6125 17.0384C35.2315 16.6928 34.9267 16.28 34.6981 15.8C34.4885 15.3008 34.3838 14.696 34.3838 13.9856C34.3838 12.6032 34.8886 11.5184 35.8982 10.7312C36.9079 9.9248 38.2795 9.5216 40.013 9.5216C40.8893 9.5216 41.7275 9.608 42.5276 9.7808C43.3277 9.9344 43.9278 10.088 44.3279 10.2416L43.6992 13.064C43.3182 12.8912 42.8324 12.7376 42.2419 12.6032C41.6513 12.4496 40.9655 12.3728 40.1845 12.3728C39.4796 12.3728 38.9081 12.4976 38.47 12.7472C38.0318 12.9776 37.8128 13.3424 37.8128 13.8416C37.8128 14.0912 37.8509 14.312 37.9271 14.504C38.0223 14.696 38.1747 14.8784 38.3843 15.0512C38.5938 15.2048 38.87 15.368 39.2129 15.5408C39.5558 15.6944 39.9749 15.8576 40.4702 16.0304C41.2894 16.3376 41.9847 16.6448 42.5562 16.952C43.1277 17.24 43.5944 17.576 43.9564 17.96C44.3374 18.3248 44.6136 18.7472 44.7851 19.2272C44.9565 19.7072 45.0422 20.2832 45.0422 20.9552C45.0422 22.3952 44.5088 23.4896 43.442 24.2384C42.3943 24.968 40.8893 25.3328 38.9272 25.3328C37.6127 25.3328 36.5555 25.2176 35.7554 24.9872C34.9553 24.776 34.3933 24.6032 34.0694 24.4688L34.6695 21.56C35.1839 21.7712 35.7935 21.9728 36.4983 22.1648C37.2222 22.3568 38.0414 22.4528 38.9558 22.4528Z"/><path d="M45.4432 17.4992C45.4432 16.1744 45.6337 15.0128 46.0147 14.0144C46.4147 13.016 46.9386 12.1904 47.5863 11.5376C48.234 10.8656 48.977 10.3664 49.8152 10.04C50.6534 9.6944 51.5106 9.5216 52.3869 9.5216C54.4443 9.5216 56.0445 10.1648 57.1875 11.4512C58.3496 12.7376 58.9306 14.6576 58.9306 17.2112C58.9306 17.4032 58.9211 17.624 58.902 17.8736C58.902 18.104 58.8925 18.3152 58.8734 18.5072H49.0151C49.1103 19.7168 49.5294 20.6576 50.2724 21.3296C51.0344 21.9824 52.1297 22.3088 53.5585 22.3088C54.3967 22.3088 55.1587 22.232 55.8445 22.0784C56.5493 21.9248 57.1018 21.7616 57.5018 21.5888L57.959 24.44C57.7685 24.536 57.5018 24.6416 57.1589 24.7568C56.8351 24.8528 56.4541 24.9392 56.0159 25.016C55.5968 25.112 55.1396 25.1888 54.6443 25.2464C54.149 25.304 53.6442 25.3328 53.1299 25.3328C51.8154 25.3328 50.6724 25.1408 49.7009 24.7568C48.7293 24.3536 47.9292 23.8064 47.3006 23.1152C46.6719 22.4048 46.2052 21.5792 45.9004 20.6384C45.5956 19.6784 45.4432 18.632 45.4432 17.4992ZM55.473 15.944C55.473 15.464 55.4063 15.0128 55.273 14.5904C55.1396 14.1488 54.9396 13.7744 54.6729 13.4672C54.4253 13.1408 54.1109 12.8912 53.7299 12.7184C53.368 12.5264 52.9298 12.4304 52.4155 12.4304C51.8821 12.4304 51.4154 12.536 51.0153 12.7472C50.6152 12.9392 50.2724 13.1984 49.9866 13.5248C49.7199 13.8512 49.5103 14.2256 49.358 14.648C49.2056 15.0704 49.1008 15.5024 49.0436 15.944H55.473Z"/><path d="M65.854 22.5104C66.9208 22.5104 67.7304 22.4528 68.2829 22.3376V18.4784C68.0924 18.4208 67.8161 18.3632 67.4542 18.3056C67.0922 18.248 66.6922 18.2192 66.254 18.2192C65.873 18.2192 65.4825 18.248 65.0825 18.3056C64.7015 18.3632 64.349 18.4688 64.0252 18.6224C63.7204 18.776 63.4727 18.9968 63.2822 19.2848C63.0917 19.5536 62.9965 19.8992 62.9965 20.3216C62.9965 21.1472 63.2537 21.7232 63.768 22.0496C64.2824 22.3568 64.9777 22.5104 65.854 22.5104ZM65.5682 9.5216C66.7112 9.5216 67.6733 9.6656 68.4543 9.9536C69.2354 10.2416 69.8545 10.6448 70.3117 11.1632C70.7879 11.6816 71.1213 12.3152 71.3118 13.064C71.5214 13.7936 71.6261 14.6 71.6261 15.4832V24.6128C71.0927 24.728 70.2831 24.8624 69.1973 25.016C68.1305 25.1888 66.9208 25.2752 65.5682 25.2752C64.6729 25.2752 63.8537 25.1888 63.1108 25.016C62.3678 24.8432 61.7297 24.5648 61.1963 24.1808C60.6819 23.7968 60.2723 23.2976 59.9675 22.6832C59.6818 22.0688 59.5389 21.3104 59.5389 20.408C59.5389 19.544 59.7008 18.8144 60.0247 18.2192C60.3676 17.624 60.8248 17.144 61.3963 16.7792C61.9678 16.3952 62.625 16.1264 63.368 15.9728C64.13 15.8 64.9205 15.7136 65.7397 15.7136C66.1207 15.7136 66.5207 15.7424 66.9398 15.8C67.3589 15.8384 67.8066 15.9152 68.2829 16.0304V15.4544C68.2829 15.0512 68.2352 14.6672 68.14 14.3024C68.0447 13.9376 67.8733 13.6208 67.6256 13.352C67.397 13.064 67.0827 12.8432 66.6827 12.6896C66.3017 12.536 65.8159 12.4592 65.2253 12.4592C64.4252 12.4592 63.6918 12.5168 63.0251 12.632C62.3583 12.7472 61.8154 12.8816 61.3963 13.0352L60.9677 10.2128C61.4058 10.0592 62.044 9.9056 62.8822 9.752C63.7204 9.5984 64.6157 9.5216 65.5682 9.5216Z"/><path d="M81.2325 13.0352C80.9467 12.9392 80.5467 12.8432 80.0323 12.7472C79.537 12.632 78.956 12.5744 78.2892 12.5744C77.9082 12.5744 77.4987 12.6128 77.0605 12.6896C76.6414 12.7664 76.3462 12.8336 76.1747 12.8912V24.9584H72.7171V10.616C73.3839 10.3664 74.2125 10.136 75.2031 9.9248C76.2128 9.6944 77.3272 9.5792 78.5464 9.5792C78.775 9.5792 79.0417 9.5984 79.3465 9.6368C79.6513 9.656 79.9561 9.6944 80.2609 9.752C80.5657 9.7904 80.861 9.848 81.1467 9.9248C81.4325 9.9824 81.6611 10.04 81.8326 10.0976L81.2325 13.0352Z"/><path d="M96.7293 9.896C95.1862 15.6176 93.3955 20.8016 91.3572 25.448C90.9762 26.312 90.5856 27.0512 90.1856 27.6656C89.7855 28.28 89.3379 28.7888 88.8426 29.192C88.3473 29.5952 87.7948 29.8832 87.1852 30.056C86.5756 30.248 85.8708 30.344 85.0707 30.344C84.5373 30.344 84.0039 30.2864 83.4705 30.1712C82.9561 30.056 82.5656 29.9312 82.2989 29.7968L82.9276 27.0032C83.6133 27.272 84.2896 27.4064 84.9564 27.4064C85.8517 27.4064 86.5471 27.1856 87.0424 26.744C87.5567 26.3216 88.0044 25.6592 88.3854 24.7568C87.2995 22.6448 86.2518 20.3408 85.2421 17.8448C84.2515 15.3488 83.3657 12.6992 82.5846 9.896H86.2708C86.4613 10.7024 86.6899 11.576 86.9566 12.5168C87.2424 13.4576 87.5472 14.4176 87.871 15.3968C88.1949 16.3568 88.5378 17.3168 88.8997 18.2768C89.2617 19.2368 89.6236 20.1296 89.9856 20.9552C90.5952 19.2464 91.1667 17.432 91.7001 15.512C92.2335 13.5728 92.7193 11.7008 93.1574 9.896H96.7293Z"/></svg>