<svg class="svg-emojis" xmlns="http://www.w3.org/2000/svg">
<symbol id="emoji-arm" viewBox="0 0 36 36"><path fill="#D2A077" d="M15.977 9.36h3.789c.114-.191.147-.439.058-.673l-3.846-4.705V9.36z"/><path fill="#F3D2A2" d="M12.804 22.277c-.057-.349-.124-.679-.206-.973-.62-2.223-1.14-3.164-.918-5.494.29-1.584.273-4.763 4.483-4.268 1.112.131 2.843.927 3.834.91.567-.01.98-1.157 1.017-1.539.051-.526-.865-1.42-1.248-1.554-.383-.134-2.012-.631-2.681-.824-1.039-.301-.985-1.705-1.051-2.205-.031-.235.084-.467.294-.591.21-.124.375-.008.579.125l.885.648c.497.426-.874 1.24-.503 1.376 0 0 1.755.659 2.507.796.412.075 1.834-1.529 1.917-2.47.065-.74-3.398-4.083-5.867-5.381-.868-.456-1.377-.721-1.949-.694-.683.032-.898.302-1.748 1.03C8.302 4.46 4.568 11.577 4.02 13.152c-2.246 6.461-2.597 9.865-2.677 11.788-.049.59-.076 1.177-.076 1.758.065 0-1 5 0 6s5.326 1 5.326 1c10 3.989 28.57 2.948 28.57-7.233 0-12.172-18.813-10.557-22.359-4.188z"/><path fill="#D2A077" d="M20.63 32.078c-3.16-.332-5.628-1.881-5.767-1.97-.465-.297-.601-.913-.305-1.379s.913-.603 1.38-.308c.04.025 4.003 2.492 7.846 1.467 2.125-.566 3.867-2.115 5.177-4.601.258-.49.866-.676 1.351-.419.488.257.676.862.419 1.351-1.585 3.006-3.754 4.893-6.447 5.606-1.257.332-2.502.374-3.654.253z"/></symbol>
<symbol id="emoji-bulb-light" viewBox="0 0 36 36"><path fill="#FFD983" d="M29 11.06c0 6.439-5 7.439-5 13.44 0 3.098-3.123 3.359-5.5 3.359-2.053 0-6.586-.779-6.586-3.361C11.914 18.5 7 17.5 7 11.06 7 5.029 12.285.14 18.083.14 23.883.14 29 5.029 29 11.06z"/><path fill="#CCD6DD" d="M22.167 32.5c0 .828-2.234 2.5-4.167 2.5-1.933 0-4.167-1.672-4.167-2.5 0-.828 2.233-.5 4.167-.5 1.933 0 4.167-.328 4.167.5z"/><path fill="#FFCC4D" d="M22.707 10.293c-.391-.391-1.023-.391-1.414 0L18 13.586l-3.293-3.293c-.391-.391-1.023-.391-1.414 0s-.391 1.023 0 1.414L17 15.414V26c0 .553.448 1 1 1s1-.447 1-1V15.414l3.707-3.707c.391-.391.391-1.023 0-1.414z"/><path fill="#99AAB5" d="M24 31c0 1.104-.896 2-2 2h-8c-1.104 0-2-.896-2-2v-6h12v6z"/><path fill="#CCD6DD" d="M11.999 32c-.48 0-.904-.347-.985-.836-.091-.544.277-1.06.822-1.15l12-2c.544-.098 1.06.277 1.15.822.091.544-.277 1.06-.822 1.15l-12 2c-.055.01-.111.014-.165.014zm0-4c-.48 0-.904-.347-.985-.836-.091-.544.277-1.06.822-1.15l12-2c.544-.097 1.06.277 1.15.822.091.544-.277 1.06-.822 1.15l-12 2c-.055.01-.111.014-.165.014z"/></symbol>
<symbol id="emoji-flower" viewBox="0 0 36 36"><path fill="#3E721D" d="M28 27c-8 0-8 6-8 6V22h-4v11s0-6-8-6c-4 0-7-2-7-2s0 9 9 9h6s0 2 2 2 2-2 2-2h6c9 0 9-9 9-9s-3 2-7 2z"/><path fill="#FFAC33" d="M21.125 27.662c-.328 0-.651-.097-.927-.283l-2.323-1.575-2.322 1.575c-.277.186-.601.283-.929.283-.143 0-.287-.018-.429-.057-.462-.123-.851-.441-1.06-.874l-1.225-2.527-2.797.204c-.04.002-.079.004-.119.004-.438 0-.86-.174-1.17-.484-.34-.342-.516-.81-.481-1.288l.201-2.8-2.523-1.225c-.432-.209-.751-.598-.876-1.062-.125-.464-.042-.958.228-1.356l1.573-2.323-1.573-2.322c-.27-.398-.353-.892-.228-1.357.125-.462.444-.851.876-1.06L7.544 7.91l-.201-2.797c-.034-.48.142-.951.481-1.289.31-.312.732-.485 1.17-.485.04 0 .079 0 .119.003l2.797.201 1.225-2.523c.209-.432.598-.751 1.06-.876.142-.038.285-.057.429-.057.328 0 .651.098.929.285l2.322 1.573L20.198.372c.275-.188.599-.285.927-.285.144 0 .29.02.428.057.465.125.854.444 1.062.876l1.225 2.523 2.8-.201c.037-.003.078-.003.116-.003.438 0 .858.173 1.172.485.338.338.515.809.48 1.289l-.204 2.797 2.527 1.225c.433.209.751.598.874 1.06.124.465.043.96-.227 1.357l-1.575 2.322 1.575 2.323c.269.398.351.892.227 1.356-.123.464-.441.852-.874 1.062l-2.527 1.225.204 2.8c.034.478-.143.946-.48 1.288-.313.311-.734.484-1.172.484-.038 0-.079-.002-.116-.004l-2.8-.204-1.225 2.527c-.209.433-.598.751-1.062.874-.139.04-.284.057-.428.057z"/><circle fill="#732700" cx="18" cy="14" r="7"/></symbol>
<symbol id="emoji-friends" viewBox="0 0 36 36"><path fill="#FFAC33" d="M11 0C9.736 0 8.565.393 7.598 1.061 7.401 1.031 7.205 1 7 1 4.791 1 3 2.791 3 5v6c0 3.866 3.134 7 7 7s7-3.134 7-7V6.001C17 2.687 14.314 0 11 0z"/><path fill="#FFDC5D" d="M11.213 34.309c-.052.682 1.849.953 2.129.791.299-.173-.698-.623-.702-.977-.019-1.797.53-1.648.311-3.492.443-1.625.672-2.592.672-3.131 0-1.25-3.312-.766-3.312 0 0 .344.365 1.681.417 3.131-.313 1.659.641 1.615.485 3.678zm-2.448 0c.052.682-1.849.953-2.129.791-.299-.173.698-.623.702-.977.019-1.797-.53-1.648-.311-3.492-.443-1.625-.672-2.592-.672-3.131 0-1.25 3.313-.766 3.313 0 0 .344-.365 1.681-.417 3.131.311 1.659-.642 1.615-.486 3.678z"/><path fill="#F9CA55" d="M13.623 27.5c0-1.25-3.312-.766-3.312 0 0 .151.071.499.154.961h3.029c.084-.411.129-.729.129-.961zm-3.956 0c0-.766-3.312-1.25-3.312 0 0 .232.045.55.13.961h3.029c.082-.462.153-.81.153-.961z"/><path fill="#FFDC5D" d="M3.258 26.96c-.258.124-.503-.097-.619-.227-.328-.367-.583-1.246-.282-2.209.303-.973.6-2.384 1.199-4.002.081-.22.499-3.764.805-4.445.197-.437 1.28-.896 1.81-.807.529.089.246.651.105 1.13 0 0-.916 3.953-1.016 4.296-.316 1.079-1.624 2.918-1.565 4.237.031.692.06 1.255-.339 1.246-.049.362-.003.735-.098.781zm14.984-.2c.271.091.487-.159.586-.302.279-.405.422-1.309.004-2.227-.423-.927-.894-2.29-1.69-3.821-.108-.208-.966-3.672-1.355-4.309-.25-.409-1.382-.729-1.897-.574-.513.154-.162.676.037 1.134 0 0 1.403 3.807 1.546 4.135.449 1.031 1.977 2.691 2.082 4.008.056.69.097 1.253.492 1.194.094.353.095.729.195.762z"/><path fill="#292F33" d="M13.945 36c.305 0 .372-.418.089-.629-.379-.285-.88-1.371-1.561-1.371h-1.245c-.229 0-.49 1.209-.41 1.48.102.345.433.52.812.52h2.315zm-7.913 0c-.305 0-.372-.418-.089-.629.379-.285.88-1.371 1.561-1.371h1.245c.229 0 .49 1.209.41 1.48-.102.345-.433.52-.811.52H6.032z"/><path fill="#E75A70" d="M14.354 17.771L16 16c-1.438-1.792-4-2-4-2H8s-2.562.208-4 2l1.646 1.771S6.25 20.688 6.25 21 5 25.75 5 28h10c0-2.25-1.25-6.688-1.25-7s.604-3.229.604-3.229z"/><path fill="#DA2F47" d="M13.75 21c0-.106.07-.512.161-1H6.089c.092.488.161.894.161 1 0 .083-.122.509-.223 1h7.942c-.108-.558-.219-.917-.219-1z"/><path fill="#FFDC5D" d="M8 11v4c0 1.104.896 2 2 2s2-.896 2-2v-4H8z"/><path fill="#F9CA55" d="M8 13.56c.608.687 1.178.859 1.998.859.819 0 1.394-.173 2.002-.859v-.812H8v.812z"/><path fill="#FFDC5D" d="M15 3H5v6c0 2.762 2.238 5 5 5s5-2.237 5-5V3z"/><path fill="#FFAC33" d="M15 2H5L4 7c4 0 4-4 4-4s0 4 8 4l-1-5z"/><path fill="#DF1F32" d="M12 12H8s0 1 2 1 2-1 2-1z"/><circle fill="#662113" cx="7.5" cy="8.5" r=".5"/><circle fill="#662113" cx="12.5" cy="8.5" r=".5"/><path fill="#C1694F" d="M9 10h2s0 1-1 1-1-1-1-1z"/><path fill="#FFAC33" d="M33 6.001C33 2.687 30.313 0 27 0c-1.264 0-2.435.393-3.402 1.061C23.401 1.031 23.205 1 23 1c-2.209 0-4 1.791-4 4v6h14V6.001z"/><path fill="#FFDC5D" d="M27.213 34.309c-.052.682 1.849.953 2.129.791.299-.173-.698-.623-.702-.977-.019-1.797.53-1.648.311-3.492.443-1.625.672-2.592.672-3.131 0-1.25-3.312-.766-3.312 0 0 .344.365 1.681.417 3.131-.313 1.659.641 1.615.485 3.678zm-2.448 0c.052.682-1.849.953-2.129.791-.299-.173.698-.623.702-.977.019-1.797-.53-1.648-.311-3.492-.443-1.625-.672-2.592-.672-3.131 0-1.25 3.312-.766 3.312 0 0 .344-.365 1.681-.417 3.131.312 1.659-.642 1.615-.485 3.678z"/><path fill="#F9CA55" d="M29.623 27.5c0-1.25-3.312-.766-3.312 0 0 .151.071.499.154.961h3.029c.084-.411.129-.729.129-.961zm-3.956 0c0-.766-3.312-1.25-3.312 0 0 .232.045.55.13.961h3.029c.082-.462.153-.81.153-.961z"/><path fill="#FFDC5D" d="M18.117 26.76c-.271.091-.487-.159-.586-.302-.279-.405-.422-1.309-.004-2.227.423-.927.702-2.072 1.69-3.821.115-.204.494-2.746 1.242-4.354.202-.435 1.495-.685 2.009-.529.513.154-.005.98-.037 1.134-.344 1.651-1.305 4.077-1.45 4.404-.8 1.806-1.965 2.389-2.071 3.706-.056.69-.205 1.286-.6 1.228-.092.352-.094.728-.193.761zm14.595.204c.257.126.504-.094.62-.222.33-.365.591-1.242.296-2.208-.297-.975-.424-2.146-1.174-4.01-.088-.217-.129-2.787-.66-4.479-.143-.458-1.392-.875-1.922-.789-.529.086-.124.972-.112 1.129.124 1.682.758 4.213.859 4.556.556 1.895 1.634 2.626 1.566 3.946-.036.692.034 1.302.433 1.296.048.363 0 .735.094.781z"/><path fill="#292F33" d="M29.945 36c.305 0 .372-.418.089-.629-.379-.285-.88-1.371-1.561-1.371h-1.245c-.229 0-.49 1.209-.41 1.48.102.345.433.52.812.52h2.315zm-7.913 0c-.305 0-.372-.418-.089-.629.379-.285.88-1.371 1.561-1.371h1.245c.229 0 .49 1.209.41 1.48-.102.345-.433.52-.811.52h-2.316z"/><path fill="#9268CA" d="M30.354 17.771L32 16c-1.438-1.792-4-2-4-2h-4s-2.562.208-4 2l1.646 1.771s.604 2.917.604 3.229S21 25.75 21 28h10c0-2.25-1.25-6.688-1.25-7s.604-3.229.604-3.229z"/><path fill="#AA8ED6" d="M29.75 21c0-.106.07-.512.161-1h-7.822c.092.488.161.894.161 1 0 .083-.122.509-.223 1h7.942c-.108-.558-.219-.917-.219-1z"/><path fill="#FFDC5D" d="M24 11v4c0 1.104.896 2 2 2s2-.896 2-2v-4h-4z"/><path fill="#F9CA55" d="M24 13.561c.608.687 1.178.859 1.998.859.819 0 1.394-.173 2.002-.859v-.812h-4v.812z"/><path fill="#FFDC5D" d="M31 3H21v6c0 2.762 2.238 5 5 5s5-2.237 5-5V3z"/><path fill="#FFAC33" d="M31 2H21l-1 5c4 0 4-4 4-4s0 4 8 4l-1-5z"/><path fill="#DF1F32" d="M28 12h-4s0 1 2 1 2-1 2-1z"/><circle fill="#662113" cx="23.5" cy="8.5" r=".5"/><circle fill="#662113" cx="28.5" cy="8.5" r=".5"/><path fill="#C1694F" d="M25 10h2s0 1-1 1-1-1-1-1z"/></symbol>
<symbol id="emoji-heart" viewBox="0 0 36 36"><path fill="#DD2E44" d="M35.885 11.833c0-5.45-4.418-9.868-9.867-9.868-3.308 0-6.227 1.633-8.018 4.129-1.791-2.496-4.71-4.129-8.017-4.129-5.45 0-9.868 4.417-9.868 9.868 0 .772.098 1.52.266 2.241C1.751 22.587 11.216 31.568 18 34.034c6.783-2.466 16.249-11.447 17.617-19.959.17-.721.268-1.469.268-2.242z"/></symbol>
<symbol id="emoji-lightning" viewBox="0 0 36 36"><path fill="#FFAC33" d="M32.938 15.651C32.792 15.26 32.418 15 32 15H19.925L26.89 1.458c.219-.426.106-.947-.271-1.243C26.437.071 26.218 0 26 0c-.233 0-.466.082-.653.243L18 6.588 3.347 19.243c-.316.273-.43.714-.284 1.105S3.582 21 4 21h12.075L9.11 34.542c-.219.426-.106.947.271 1.243.182.144.401.215.619.215.233 0 .466-.082.653-.243L18 29.412l14.653-12.655c.317-.273.43-.714.285-1.106z"/></symbol>
<symbol id="emoji-nerd" viewBox="0 0 36 36"><circle fill="#FFCC4D" cx="18" cy="18" r="18"/><path fill="#664500" d="M27.335 23.629c-.178-.161-.444-.171-.635-.029-.039.029-3.922 2.9-8.7 2.9-4.766 0-8.662-2.871-8.7-2.9-.191-.142-.457-.13-.635.029-.177.16-.217.424-.094.628C8.7 24.472 11.788 29.5 18 29.5s9.301-5.028 9.429-5.243c.123-.205.084-.468-.094-.628z"/><path fill="#65471B" d="M18 26.591c-.148 0-.291-.011-.438-.016v4.516h.875v-4.517c-.145.005-.289.017-.437.017z"/><path fill="#FFF" d="M22 26c.016-.004-1.45.378-2.446.486-.366.042-.737.076-1.117.089v4.517H20c1.1 0 2-.9 2-2V26zm-8 0c-.016-.004 1.45.378 2.446.486.366.042.737.076 1.117.089v4.517H16c-1.1 0-2-.9-2-2V26z"/><path fill="#65471B" d="M27.335 23.629c-.178-.161-.444-.171-.635-.029-.03.022-2.259 1.668-5.411 2.47-.443.113-1.864.43-3.286.431-1.424 0-2.849-.318-3.292-.431-3.152-.802-5.381-2.448-5.411-2.47-.19-.142-.457-.132-.635.029-.178.16-.217.423-.094.628.097.162 1.885 3.067 5.429 4.481v-1.829c-.016-.004 1.45.378 2.446.486.366.042.737.076 1.117.089.146.005.289.016.437.016.148 0 .291-.011.438-.016.38-.013.751-.046 1.117-.089.996-.108 2.462-.49 2.446-.486v1.829c3.544-1.414 5.332-4.319 5.429-4.481.122-.205.083-.468-.095-.628zm-.711-9.605c0 1.714-.938 3.104-2.096 3.104-1.157 0-2.096-1.39-2.096-3.104s.938-3.104 2.096-3.104c1.158 0 2.096 1.39 2.096 3.104zm-17.167 0c0 1.714.938 3.104 2.096 3.104 1.157 0 2.096-1.39 2.096-3.104s-.938-3.104-2.096-3.104c-1.158 0-2.096 1.39-2.096 3.104z"/><path fill="#292F33" d="M34.808 9.627c-.171-.166-1.267.274-2.376-.291-2.288-1.166-8.07-2.291-11.834.376-.403.285-2.087.333-2.558.313-.471.021-2.155-.027-2.558-.313-3.763-2.667-9.545-1.542-11.833-.376-1.109.565-2.205.125-2.376.291-.247.239-.247 1.196.001 1.436.246.239 1.477.515 1.722 1.232.247.718.249 4.958 2.213 6.424 1.839 1.372 6.129 1.785 8.848.238 2.372-1.349 2.289-4.189 2.724-5.881.155-.603.592-.907 1.26-.907s1.105.304 1.26.907c.435 1.691.351 4.532 2.724 5.881 2.719 1.546 7.009 1.133 8.847-.238 1.965-1.465 1.967-5.706 2.213-6.424.245-.717 1.476-.994 1.722-1.232.248-.24.249-1.197.001-1.436zm-20.194 3.65c-.077 1.105-.274 3.227-1.597 3.98-.811.462-1.868.743-2.974.743h-.001c-1.225 0-2.923-.347-3.587-.842-.83-.619-1.146-3.167-1.265-4.12-.076-.607-.28-2.09.388-2.318 1.06-.361 2.539-.643 4.052-.643.693 0 3.021.043 4.155.741 1.005.617.872 1.851.829 2.459zm16.278-.253c-.119.954-.435 3.515-1.265 4.134-.664.495-2.362.842-3.587.842h-.001c-1.107 0-2.163-.281-2.975-.743-1.323-.752-1.52-2.861-1.597-3.966-.042-.608-.176-1.851.829-2.468 1.135-.698 3.462-.746 4.155-.746 1.513 0 2.991.277 4.052.638.668.228.465 1.702.389 2.309z"/></symbol>
<symbol id="emoji-sad" viewBox="0 0 36 36"><path fill="#FFCC4D" d="M36 18c0 9.941-8.059 18-18 18-9.94 0-18-8.059-18-18C0 8.06 8.06 0 18 0c9.941 0 18 8.06 18 18"/><ellipse fill="#664500" cx="11.5" cy="17" rx="2.5" ry="3.5"/><ellipse fill="#664500" cx="24.5" cy="17" rx="2.5" ry="3.5"/><path fill="#664500" d="M5.999 13.5c-.208 0-.419-.065-.599-.2-.442-.331-.531-.958-.2-1.4 3.262-4.35 7.616-4.4 7.8-4.4.552 0 1 .448 1 1 0 .551-.445.998-.996 1-.155.002-3.568.086-6.204 3.6-.196.262-.497.4-.801.4zm24.002 0c-.305 0-.604-.138-.801-.4-2.641-3.521-6.061-3.599-6.206-3.6-.55-.006-.994-.456-.991-1.005.003-.551.447-.995.997-.995.184 0 4.537.05 7.8 4.4.332.442.242 1.069-.2 1.4-.18.135-.39.2-.599.2zm-6.516 14.879C23.474 28.335 22.34 24 18 24s-5.474 4.335-5.485 4.379c-.053.213.044.431.232.544.188.112.433.086.596-.06C13.352 28.855 14.356 28 18 28c3.59 0 4.617.83 4.656.863.095.09.219.137.344.137.084 0 .169-.021.246-.064.196-.112.294-.339.239-.557z"/><path fill="#5DADEC" d="M16 31c0 2.762-2.238 5-5 5s-5-2.238-5-5 4-10 5-10 5 7.238 5 10z"/></symbol>
<symbol id="emoji-smile" viewBox="0 0 36 36"><path fill="#FFCC4D" d="M36 18c0 9.941-8.059 18-18 18-9.94 0-18-8.059-18-18C0 8.06 8.06 0 18 0c9.941 0 18 8.06 18 18"/><path fill="#664500" d="M28.457 17.797c-.06-.135-1.499-3.297-4.457-3.297-2.957 0-4.397 3.162-4.457 3.297-.092.207-.032.449.145.591.175.142.426.147.61.014.012-.009 1.262-.902 3.702-.902 2.426 0 3.674.881 3.702.901.088.066.194.099.298.099.11 0 .221-.037.312-.109.177-.142.238-.386.145-.594zm-12 0c-.06-.135-1.499-3.297-4.457-3.297-2.957 0-4.397 3.162-4.457 3.297-.092.207-.032.449.144.591.176.142.427.147.61.014.013-.009 1.262-.902 3.703-.902 2.426 0 3.674.881 3.702.901.088.066.194.099.298.099.11 0 .221-.037.312-.109.178-.142.237-.386.145-.594zM18 22c-3.623 0-6.027-.422-9-1-.679-.131-2 0-2 2 0 4 4.595 9 11 9 6.404 0 11-5 11-9 0-2-1.321-2.132-2-2-2.973.578-5.377 1-9 1z"/><path fill="#FFF" d="M9 23s3 1 9 1 9-1 9-1-2 4-9 4-9-4-9-4z"/></symbol>
</svg>