<svg class="svg-icons" xmlns="http://www.w3.org/2000/svg">
<symbol id="icon-arrow" viewBox="0 0 24 24"><path d="M5 3l3.057-3 11.943 12-11.943 12-3.057-3 9-9z"/></symbol>
<symbol id="icon-eye" viewBox="0 0 24 24"><path d="M15 12c0 1.654-1.346 3-3 3s-3-1.346-3-3 1.346-3 3-3 3 1.346 3 3zm9-.449s-4.252 7.449-11.985 7.449c-7.18 0-12.015-7.449-12.015-7.449s4.446-6.551 12.015-6.551c7.694 0 11.985 6.551 11.985 6.551zm-7 .449c0-2.761-2.238-5-5-5-2.761 0-5 2.239-5 5 0 2.762 2.239 5 5 5 2.762 0 5-2.238 5-5z"/></symbol>
<symbol id="icon-facebook" viewBox="0 0 24 24">
<path d="M24 12.0301C24 5.38947 18.624 0 12 0C5.376 0 0 5.38947 0 12.0301C0 17.8526 4.128 22.7007 9.6 23.8195V15.6391H7.2V12.0301H9.6V9.02256C9.6 6.70075 11.484 4.81203 13.8 4.81203H16.8V8.42105H14.4C13.74 8.42105 13.2 8.96241 13.2 9.62406V12.0301H16.8V15.6391H13.2V24C19.26 23.3985 24 18.2737 24 12.0301Z"/>
</symbol>
<symbol id="icon-favorite" viewBox="0 0 24 24"><path d="M12 4.248c-3.148-5.402-12-3.825-12 2.944 0 4.661 5.571 9.427 12 15.808 6.43-6.381 12-11.147 12-15.808 0-6.792-8.875-8.306-12-2.944z"/></symbol>
<symbol id="icon-link" viewBox="0 0 24 24"><path d="M17.033 6.966c.584.583.584 1.529 0 2.112l-7.955 7.956c-.583.583-1.529.583-2.112 0-.583-.583-.583-1.529 0-2.112l7.956-7.956c.582-.583 1.528-.583 2.111 0zm-9.138 13.386c-1.171 1.171-3.076 1.171-4.248 0-1.171-1.171-1.171-3.077 0-4.248l5.639-5.632c-1.892-.459-3.971.05-5.449 1.528l-2.147 2.147c-2.254 2.254-2.254 5.909 0 8.163 2.254 2.254 5.909 2.254 8.163 0l2.147-2.148c1.477-1.477 1.986-3.556 1.527-5.448l-5.632 5.638zm6.251-18.662l-2.146 2.148c-1.478 1.478-1.99 3.553-1.53 5.445l5.634-5.635c1.172-1.171 3.077-1.171 4.248 0 1.172 1.171 1.172 3.077 0 4.248l-5.635 5.635c1.893.459 3.968-.053 5.445-1.53l2.146-2.147c2.254-2.254 2.254-5.908 0-8.163-2.253-2.254-5.908-2.254-8.162-.001z"/></symbol>
<symbol id="icon-magnifier" viewBox="0 0 24 24"><path d="M23.809 21.646l-6.205-6.205c1.167-1.605 1.857-3.579 1.857-5.711 0-5.365-4.365-9.73-9.731-9.73-5.365 0-9.73 4.365-9.73 9.73 0 5.366 4.365 9.73 9.73 9.73 2.034 0 3.923-.627 5.487-1.698l6.238 6.238 2.354-2.354zm-20.955-11.916c0-3.792 3.085-6.877 6.877-6.877s6.877 3.085 6.877 6.877-3.085 6.877-6.877 6.877c-3.793 0-6.877-3.085-6.877-6.877z"/></symbol>
<symbol id="icon-menu" viewBox="0 0 24 24"><path d="M24 6h-24v-4h24v4zm0 4h-24v4h24v-4zm0 8h-24v4h24v-4z"/></symbol>
<symbol id="icon-pinterest" viewBox="0 0 24 24"><path d="M12 0c-6.627 0-12 5.372-12 12 0 5.084 3.163 9.426 7.627 11.174-.105-.949-.2-2.405.042-3.441.218-.937 1.407-5.965 1.407-5.965s-.359-.719-.359-1.782c0-1.668.967-2.914 2.171-2.914 1.023 0 1.518.769 1.518 1.69 0 1.029-.655 2.568-.994 3.995-.283 1.194.599 2.169 1.777 2.169 2.133 0 3.772-2.249 3.772-5.495 0-2.873-2.064-4.882-5.012-4.882-3.414 0-5.418 2.561-5.418 5.207 0 1.031.397 2.138.893 2.738.098.119.112.224.083.345l-.333 1.36c-.053.22-.174.267-.402.161-1.499-.698-2.436-2.889-2.436-4.649 0-3.785 2.75-7.262 7.929-7.262 4.163 0 7.398 2.967 7.398 6.931 0 4.136-2.607 7.464-6.227 7.464-1.216 0-2.359-.631-2.75-1.378l-.748 2.853c-.271 1.043-1.002 2.35-1.492 3.146 1.124.347 2.317.535 3.554.535 6.627 0 12-5.373 12-12 0-6.628-5.373-12-12-12z" fill-rule="evenodd" clip-rule="evenodd"/></symbol>
<symbol id="icon-twitter" viewBox="0 0 24 24"><path d="M24 4.557c-.883.392-1.832.656-2.828.775 1.017-.609 1.798-1.574 2.165-2.724-.951.564-2.005.974-3.127 1.195-.897-.957-2.178-1.555-3.594-1.555-3.179 0-5.515 2.966-4.797 6.045-4.091-.205-7.719-2.165-10.148-5.144-1.29 2.213-.669 5.108 1.523 6.574-.806-.026-1.566-.247-2.229-.616-.054 2.281 1.581 4.415 3.949 4.89-.693.188-1.452.232-2.224.084.626 1.956 2.444 3.379 4.6 3.419-2.07 1.623-4.678 2.348-7.29 2.04 2.179 1.397 4.768 2.212 7.548 2.212 9.142 0 14.307-7.721 13.995-14.646.962-.695 1.797-1.562 2.457-2.549z"/></symbol>
<symbol id="icon-x" viewBox="0 0 24 24"><path d="M23.954 21.03l-9.184-9.095 9.092-9.174-2.832-2.807-9.09 9.179-9.176-9.088-2.81 2.81 9.186 9.105-9.095 9.184 2.81 2.81 9.112-9.192 9.18 9.1z"/></symbol>
</svg>